#!OML:ASF I:\Actors\actors\Patient Classification 2\Patient 1\Session 1\actor1.ASF
:FULLY-SPECIFIED
:DEGREES
401
root -0.71544 18.7694 4.33954 4.20116 6.67245 -2.44321
lowerback 9.50418 2.60706 -6.29005
upperback -1.25919 2.57638 -2.32016
thorax -6.85188 1.45185 0.689218
lowerneck -14.3832 -6.72074 -6.57279
upperneck 22.9223 -10.8709 11.8853
head 10.8029 -4.24338 3.83856
rclavicle -2.70347e-014 -6.04305e-014
rhumerus 3.5128 18.2614 -34.8379
rradius 88.0134
rwrist 43.2398
rhand -40.3015 -49.7527
rfingers 7.12502
rthumb -13.2584 -79.311
lclavicle -2.70347e-014 -6.04305e-014
lhumerus -26.8056 -37.1159 88.9173
lradius 120.445
lwrist 42.9675
lhand -17.9156 -21.1095
lfingers 7.12502
lthumb 8.35179 8.70537
rfemur 0 0 0
rtibia 0
rfoot 0 0
rtoes 0
lfemur -12.191 -8.87112 -10.8744
ltibia 23.789
lfoot -18.4414 6.17287
ltoes -55.4379
402
root -0.720902 18.7737 4.33648 4.31209 6.61048 -2.49299
lowerback 9.48062 2.59924 -6.06558
upperback -1.28319 2.59064 -2.36491
thorax -6.85145 1.44992 0.515484
lowerneck -14.3303 -6.70917 -6.39471
upperneck 22.8412 -10.8629 11.7814
head 10.7442 -4.24041 3.77136
rclavicle -1.90833e-014 -2.54444e-014
rhumerus 4.35329 16.3693 -34.1469
rradius 87.9668
rwrist 43.1721
rhand -40.6098 -49.4079
rfingers 7.12502
rthumb -13.5555 -78.9466
lclavicle -1.90833e-014 -2.54444e-014
lhumerus -26.6292 -37.1403 88.7678
lradius 120.387
lwrist 42.8853
lhand -17.8863 -20.946
lfingers 7.12502
lthumb 8.3801 8.86778
rfemur 0 0 0
rtibia 0
rfoot 0 0
rtoes 0
lfemur -12.3016 -8.92076 -10.7917
ltibia 23.7558
lfoot -18.3979 6.38571
ltoes -55.5425
403
root -0.726683 18.778 4.33232 4.40243 6.47934 -2.59092
lowerback 9.51082 2.62457 -5.75363
upperback -1.31917 2.65542 -2.39296
thorax -6.8934 1.47041 0.299694
lowerneck -14.3049 -6.74355 -6.31251
upperneck 22.7735 -10.916 11.7464
head 10.7131 -4.26459 3.73571
rclavicle 3.39922e-014 -3.18055e-015
rhumerus 5.45002 14.7674 -33.4399
rradius 88.0531
rwrist 42.8046
rhand -40.7386 -50.1553
rfingers 7.12502
rthumb -13.6797 -79.6857
lclavicle 3.39922e-014 -3.18055e-015
lhumerus -26.4555 -37.1646 88.6471
lradius 120.356
lwrist 42.823
lhand -17.9147 -20.7721
lfingers 7.12502
lthumb 8.35265 9.04277
rfemur 0 0 0
rtibia 0
rfoot 0 0
rtoes 0
lfemur -12.3671 -9.00592 -10.6674
ltibia 23.7251
lfoot -18.4155 6.70122
ltoes -55.6974
404
root -0.73201 18.7821 4.32863 4.46991 6.25897 -2.71015
lowerback 9.5039 2.67498 -5.40423
upperback -1.31488 2.76517 -2.39071
thorax -6.87199 1.51046 0.0910192
lowerneck -14.3743 -6.76411 -6.27155
upperneck 22.7252 -10.9448 11.7364
head 10.7092 -4.27405 3.71793
rclavicle -1.76918e-014 6.36111e-015
rhumerus 6.85838 13.4151 -32.7224
rradius 88.1648
rwrist 42.4634
rhand -40.6634 -50.2514
rfingers 7.12502
rthumb -13.6073 -79.7867
lclavicle -1.76918e-014 6.36111e-015
lhumerus -26.1841 -37.121 88.524
lradius 120.285
lwrist 42.818
lhand -17.9067 -20.7785
lfingers 7.12502
lthumb 8.36035 9.03606
rfemur 0 0 0
rtibia 0
rfoot 0 0
rtoes 0
lfemur -12.3833 -9.07178 -10.5355
ltibia 23.7055
lfoot -18.4879 7.07054
ltoes -55.8321
405
root -0.735667 18.7867 4.3244 4.57455 5.96117 -2.73963
lowerback 9.48134 2.7675 -5.14412
upperback -1.33462 2.92019 -2.3904
thorax -6.87284 1.57665 -0.0775019
lowerneck -14.4401 -6.78069 -6.25137
upperneck 22.6878 -10.9745 11.7652
head 10.7125 -4.28098 3.71806
rclavicle 1.88845e-014 1.59028e-014
rhumerus 8.38122 12.4711 -32.0409
rradius 88.3551
rwrist 42.0802
rhand -40.5611 -50.211
rfingers 7.12502
rthumb -13.5087 -79.7528
lclavicle 1.88845e-014 1.59028e-014
lhumerus -25.9617 -37.1159 88.4583
lradius 120.204
lwrist 42.8397
lhand -17.8664 -20.9387
lfingers 7.12502
lthumb 8.39928 8.87428
rfemur 0 0 0
rtibia 0
rfoot 0 0
rtoes 0
lfemur -12.4184 -8.96772 -10.5149
ltibia 23.6909
lfoot -18.588 7.37516
ltoes -55.8902
406
root -0.738133 18.7925 4.3185 4.72415 5.63003 -2.69037
lowerback 9.46004 2.87581 -4.92915
upperback -1.39169 3.0876 -2.41376
thorax -6.91468 1.65098 -0.249357
lowerneck -14.3949 -6.80917 -6.15496
upperneck 22.5469 -11.0158 11.7369
head 10.649 -4.30089 3.68356
rclavicle 4.17448e-015 -1.59028e-015
rhumerus 10.008 11.9469 -31.4475
rradius 88.5649
rwrist 41.593
rhand -40.6804 -50.0823
rfingers 7.12502
rthumb -13.6237 -79.6165
lclavicle 4.17448e-015 -1.59028e-015
lhumerus -25.834 -37.1299 88.4294
lradius 120.179
lwrist 42.8971
lhand -17.9218 -21.0219
lfingers 7.12502
lthumb 8.34581 8.79327
rfemur 0 0 0
rtibia 0
rfoot 0 0
rtoes 0
lfemur -12.4866 -8.87275 -10.5903
ltibia 23.6614
lfoot -18.7236 7.79316
ltoes -56.024
